<?xml version="1.0" encoding="utf-8"?>
<!-- Generator: Adobe Illustrator 25.2.1, SVG Export Plug-In . SVG Version: 6.00 Build 0)  -->
<svg version="1.1" id="Capa_1" xmlns="http://www.w3.org/2000/svg" xmlns:xlink="http://www.w3.org/1999/xlink" x="0px" y="0px"
	 viewBox="0 0 512 512" style="enable-background:new 0 0 512 512;" xml:space="preserve">
<g transform="translate(0.000000,512.000000) scale(0.100000,-0.100000)">
	<path d="M1115.6,3729.8C1071.8,3709.5,25.3,2657.7,10.4,2620.3c-14.9-42.7-13.9-99.3,4.3-133.5c8.5-16,259.5-272.3,558.5-570.2
		c457-456,548.9-542.5,585.2-553.1c142-41.6,262.7,119.6,189,250.9c-6.4,11.7-180.5,190.1-385.5,395.1L587,2383.2l2214.7,5.3
		l2215.8,5.3l28.8,22.4c56.6,41.6,73.7,75.8,73.7,143.1c0,67.3-17.1,101.4-73.7,143.1l-28.8,22.4l-2217.9,3.2l-2216.8,2.1
		l380.2,382.3c331,332.1,381.2,386.6,387.6,421.8C1377.2,3675.3,1242.7,3787.5,1115.6,3729.8z"/>
</g>
</svg>
