<?xml version="1.0" encoding="utf-8"?>
<!-- Generator: Adobe Illustrator 25.2.1, SVG Export Plug-In . SVG Version: 6.00 Build 0)  -->
<svg version="1.1" id="Capa_1" xmlns="http://www.w3.org/2000/svg" xmlns:xlink="http://www.w3.org/1999/xlink" x="0px" y="0px"
	 viewBox="0 0 512 512" style="enable-background:new 0 0 512 512;" xml:space="preserve">
<g transform="translate(0.000000,512.000000) scale(0.100000,-0.100000)">
	<path d="M1851,5109c-657-74-1219-432-1555-989c-138-229-223-463-273-745c-26-151-23-500,5-655c120-657,508-1187,1087-1487
		c310-160,591-228,945-227c431,0,785,107,1145,345l119,79l696-693c469-468,708-700,735-713c54-25,167-25,215,0
		c120,63,175,193,135,317c-17,51-54,91-717,755l-699,701l77,114c371,548,453,1234,222,1869c-75,208-219,450-375,631
		c-260,300-628,533-1005,634C2378,5107,2066,5134,1851,5109z M2208,4599c380-41,677-182,943-448c271-271,415-579,451-963
		c32-343-60-693-263-998c-84-127-282-325-409-409c-512-341-1143-359-1664-47c-376,224-641,602-728,1039c-32,160-32,414,0,574
		c90,451,367,835,767,1062C1572,4561,1909,4632,2208,4599z"/>
</g>
</svg>
