<?xml version="1.0" encoding="utf-8"?>
<!-- Generator: Adobe Illustrator 25.2.1, SVG Export Plug-In . SVG Version: 6.00 Build 0)  -->
<svg version="1.1" id="Capa_1" xmlns="http://www.w3.org/2000/svg" xmlns:xlink="http://www.w3.org/1999/xlink" x="0px" y="0px"
	 viewBox="0 0 512 512" style="enable-background:new 0 0 512 512;" xml:space="preserve">
<g transform="translate(0.000000,512.000000) scale(0.100000,-0.100000)">
	<path d="M395,5076c-170-41-316-188-355-356c-28-120-7-261,54-364c14-23,419-435,900-916l876-875l-888-890C26,717,52,746,15,605
		C-14,490,2,371,62,258C156,81,377-5,611,44c140,30,103-3,1054,947c484,483,885,879,890,879s406-395,890-879
		c816-815,885-881,945-909c207-96,457-57,600,94c135,142,166,360,78,543c-29,61-99,133-927,958l-896,891l871,874
		c543,544,881,890,897,918c44,78,60,152,55,259c-6,115-30,185-93,269c-123,163-346,232-540,166c-111-37-161-84-1029-953l-850-850
		l-875,872c-941,936-918,916-1056,952C556,5093,465,5093,395,5076z"/>
</g>
</svg>
