<?xml version="1.0" encoding="utf-8"?>
<!-- Generator: Adobe Illustrator 25.2.1, SVG Export Plug-In . SVG Version: 6.00 Build 0)  -->
<svg version="1.1" id="Capa_1" xmlns="http://www.w3.org/2000/svg" xmlns:xlink="http://www.w3.org/1999/xlink" x="0px" y="0px"
	 viewBox="0 0 512 512" style="enable-background:new 0 0 512 512;" xml:space="preserve">
<g transform="translate(0.000000,512.000000) scale(0.100000,-0.100000)">
	<path d="M381,3054C165,2996,0,2783,0,2560c0-177,113-366,269-449c200-106,441-71,599,87c104,104,152,219,152,362s-48,258-152,362
		C743,3047,550,3100,381,3054z"/>
	<path d="M2433,3055c-179-48-321-193-368-372c-69-266,100-547,372-618c266-69,547,100,618,372c69,266-100,547-372,618
		C2612,3074,2502,3073,2433,3055z"/>
	<path d="M4485,3056c-171-43-326-195-370-363c-46-178,5-363,137-495c244-244,657-175,810,134c78,157,78,299,0,456
		C4958,2999,4713,3113,4485,3056z"/>
</g>
</svg>
