<?xml version="1.0" encoding="utf-8"?>
<!-- Generator: Adobe Illustrator 25.2.1, SVG Export Plug-In . SVG Version: 6.00 Build 0)  -->
<svg version="1.1" id="Capa_1" xmlns="http://www.w3.org/2000/svg" xmlns:xlink="http://www.w3.org/1999/xlink" x="0px" y="0px"
	 viewBox="0 0 512 512" style="enable-background:new 0 0 512 512;" xml:space="preserve">
<g transform="translate(0.000000,512.000000) scale(0.100000,-0.100000)">
	<path d="M3861,5110c-57-12-157-60-201-96c-55-45-3166-3188-3178-3211C465,1773,0,138,0,112C0,59,62,0,117,0c10,0,394,108,852,239
		l834,240l136,134c399,393,2734,2707,2897,2871c243,243,279,305,279,476c0,89-17,155-58,230c-37,69-787,823-858,864
		c-25,14-68,33-95,41C4042,5114,3918,5122,3861,5110z M4048,4865c47-20,784-752,814-810c29-55,29-145,0-200c-11-22-139-158-286-305
		l-266-265l-512,513l-513,512l265,266c170,170,279,273,305,285C3904,4884,3997,4886,4048,4865z M3338,3927l212-212L2431,2596
		L1312,1477l-85,169c-47,93-95,178-107,189c-19,17-39,21-137,23c-63,2-113,7-111,12c4,9,2241,2268,2248,2269
		C3123,4140,3221,4044,3338,3927z M4138,3120c-5-10-2260-2245-2268-2248c-5-2-10,48-12,111c-2,98-6,118-23,137c-11,12-96,60-189,107
		l-169,85l1119,1119l1119,1119l212-212C4044,3221,4139,3123,4138,3120z M1085,1412l110-217l217-110l218-110V823V671l-52-16
		c-29-8-154-44-278-80l-225-64L793,793l-282,282l64,225c36,124,72,249,80,278l16,52h152h152L1085,1412z M630,625
		c101-101,182-186,180-188c-10-8-513-148-517-144c-5,6,140,517,147,517C443,810,528,727,630,625z"/>
</g>
</svg>
