<?xml version="1.0" encoding="utf-8"?>
<!-- Generator: Adobe Illustrator 25.2.1, SVG Export Plug-In . SVG Version: 6.00 Build 0)  -->
<svg version="1.1" id="Capa_1" xmlns="http://www.w3.org/2000/svg" xmlns:xlink="http://www.w3.org/1999/xlink" x="0px" y="0px"
	 viewBox="0 0 512 512" style="enable-background:new 0 0 512 512;" xml:space="preserve">
<g transform="translate(0.000000,512.000000) scale(0.100000,-0.100000)">
	<path d="M2348,5106c-127-35-225-149-248-287c-6-41-10-382-10-926v-863h-862c-545,0-886-4-927-10c-120-20-215-90-268-198
		c-28-57-28-58-28-262s0-205,28-262c53-108,148-178,268-198c41-6,382-10,927-10h862v-862c0-545,4-886,10-927c20-119,91-216,200-269
		c54-27,57-27,260-27c204,0,205,0,262,28c108,53,178,148,198,268c6,41,10,382,10,927v862h863c544,0,885,4,926,10
		c122,20,214,89,268,198c28,57,28,58,28,262s0,205-28,262c-54,109-146,178-268,198c-41,6-382,10-926,10h-863v863c0,544-4,885-10,926
		c-20,120-90,215-198,268c-55,27-62,28-242,30C2452,5119,2381,5116,2348,5106z"/>
</g>
</svg>
