<?xml version="1.0" encoding="utf-8"?>
<!-- Generator: Adobe Illustrator 25.2.1, SVG Export Plug-In . SVG Version: 6.00 Build 0)  -->
<svg version="1.1" id="Capa_1" xmlns="http://www.w3.org/2000/svg" xmlns:xlink="http://www.w3.org/1999/xlink" x="0px" y="0px"
	 viewBox="0 0 512 512" style="enable-background:new 0 0 512 512;" xml:space="preserve">
<g transform="translate(0.000000,512.000000) scale(0.100000,-0.100000)">
	<path d="M1871,5109c-128-25-257-125-311-241c-37-79-50-146-50-259v-89h-389c-222,0-411-4-442-10c-187-36-330-184-361-376
		c-30-181,66-371,231-458l69-36l6-58c4-31,65-763,136-1627c72-863,134-1587,139-1608c36-155,177-295,335-332c91-22,2561-22,2652,0
		c158,37,299,177,335,332c5,21,67,745,139,1608c71,864,132,1596,136,1627l6,58l69,36c165,87,261,277,231,458
		c-31,192-174,340-361,376c-31,6-220,10-442,10h-389v89c0,48-5,112-10,142c-34,180-179,325-359,359C3175,5122,1935,5122,1871,5109z
		 M3230,4800c60-31,80-78,80-190v-90h-750h-750v90c0,110,20,159,78,189c36,19,60,20,670,21C3173,4820,3192,4819,3230,4800z
		 M4430,4200c45-23,80-80,80-130s-35-107-80-130c-39-20-55-20-1870-20s-1831,0-1870,20c-45,23-80,80-80,130c0,48,35,107,78,129
		c36,20,65,20,1870,21C4376,4220,4391,4220,4430,4200z M4194,3578c-2-24-63-747-134-1606C3920,278,3931,374,3867,326l-28-21H2560
		H1281l-28,21c-64,48-53-48-193,1646c-71,859-132,1582-134,1606l-6,42h1640h1640L4194,3578z"/>
	<path d="M1587,3299c-25-13-45-34-58-62l-21-43l76-1234c85-1381,76-1299,155-1340c51-25,91-25,142,0c27,14,46,34,60,63l21,43
		l-76,1234c-85,1381-76,1299-155,1340C1681,3325,1636,3325,1587,3299z"/>
	<path d="M2488,3299c-23-12-46-35-58-59c-20-39-20-57-20-1280c0-1224,0-1241,20-1280c23-45,80-80,130-80s107,35,130,80
		c20,39,20,56,20,1280s0,1241-20,1280C2653,3313,2563,3339,2488,3299z"/>
	<path d="M3387,3299c-77-41-68,37-153-1339l-76-1234l21-43c14-29,33-49,60-63c51-25,91-25,142,0c79,41,70-41,155,1340l76,1234
		l-21,43C3554,3312,3464,3340,3387,3299z"/>
</g>
</svg>
