<?xml version="1.0" encoding="utf-8"?>
<!-- Generator: Adobe Illustrator 25.2.1, SVG Export Plug-In . SVG Version: 6.00 Build 0)  -->
<svg version="1.1" id="Capa_1" xmlns="http://www.w3.org/2000/svg" xmlns:xlink="http://www.w3.org/1999/xlink" x="0px" y="0px"
	 viewBox="0 0 800 162" style="enable-background:new 0 0 800 162;" xml:space="preserve">
<style type="text/css">
	.st0{fill:#FFFFFF;}
	.st1{fill:#CE5631;}
	.st2{fill:#8CAC2F;}
</style>
<g>
	<path class="st0" d="M242.1,121.7c1.5,0,2.9,0.3,4,1c1.1,0.6,2,1.6,2.7,2.7c0.6,1.2,1,2.5,1,4.1c0,1.5-0.3,2.9-1,4.1
		c-0.6,1.2-1.5,2.2-2.7,2.9c-1.2,0.7-2.5,1.1-4,1.1h-9l0.2-0.3v12.1c0,0.2-0.1,0.4-0.3,0.6c-0.2,0.2-0.4,0.2-0.6,0.2
		c-0.3,0-0.5-0.1-0.6-0.2c-0.1-0.2-0.2-0.4-0.2-0.6v-26.8c0-0.2,0.1-0.4,0.2-0.6c0.2-0.2,0.4-0.2,0.6-0.2H242.1z M242.1,135.8
		c1.2,0,2.3-0.3,3.2-0.8c0.9-0.6,1.6-1.3,2-2.3c0.5-1,0.7-2.1,0.7-3.3c0-1.2-0.2-2.3-0.7-3.2c-0.5-0.9-1.2-1.6-2-2.1
		c-0.9-0.5-1.9-0.8-3.2-0.8h-9l0.1-0.2v12.9l-0.2-0.1H242.1z"/>
	<path class="st0" d="M255.8,150.1c-0.2,0-0.4-0.1-0.6-0.2c-0.1-0.2-0.2-0.4-0.2-0.6v-18.6c0-0.2,0.1-0.4,0.2-0.6
		c0.2-0.2,0.4-0.2,0.6-0.2c0.2,0,0.4,0.1,0.6,0.2c0.1,0.2,0.2,0.4,0.2,0.6v6.9l-0.7,1.1c0-1.1,0.2-2.1,0.5-3.2
		c0.4-1.1,0.9-2.1,1.6-3c0.7-0.9,1.6-1.7,2.6-2.3c1-0.6,2.2-0.9,3.5-0.9c0.4,0,0.8,0.1,1.2,0.2c0.4,0.1,0.6,0.4,0.6,0.8
		c0,0.2-0.1,0.4-0.2,0.6c-0.1,0.2-0.3,0.2-0.5,0.2c-0.2,0-0.4-0.1-0.6-0.2c-0.2-0.1-0.6-0.2-1-0.2c-0.9,0-1.7,0.3-2.6,0.8
		c-0.8,0.5-1.6,1.2-2.3,2c-0.7,0.9-1.2,1.8-1.6,2.8s-0.6,2-0.6,2.9v10.1c0,0.2-0.1,0.4-0.2,0.6C256.2,150,256,150.1,255.8,150.1z"/>
	<path class="st0" d="M287.6,139.8c0,2-0.4,3.8-1.3,5.4c-0.9,1.6-2,2.9-3.5,3.8c-1.5,0.9-3.2,1.4-5.1,1.4c-1.9,0-3.6-0.5-5.1-1.4
		c-1.5-0.9-2.7-2.2-3.6-3.8c-0.9-1.6-1.3-3.4-1.3-5.4c0-2,0.4-3.8,1.3-5.5c0.9-1.6,2.1-2.9,3.6-3.8c1.5-0.9,3.2-1.4,5.1-1.4
		c1.9,0,3.6,0.5,5.1,1.4c1.5,0.9,2.7,2.2,3.5,3.8C287.1,136,287.6,137.8,287.6,139.8z M286,139.8c0-1.8-0.4-3.3-1.1-4.7
		c-0.7-1.4-1.7-2.4-3-3.2c-1.3-0.8-2.7-1.2-4.3-1.2c-1.6,0-3,0.4-4.3,1.2c-1.3,0.8-2.3,1.9-3,3.2c-0.7,1.4-1.1,2.9-1.1,4.7
		c0,1.7,0.4,3.3,1.1,4.6c0.7,1.4,1.7,2.4,3,3.2c1.3,0.8,2.7,1.2,4.3,1.2c1.6,0,3.1-0.4,4.3-1.2c1.3-0.8,2.2-1.9,3-3.2
		C285.6,143.1,286,141.6,286,139.8z"/>
	<path class="st0" d="M301.3,129.2c1.2,0,2.4,0.2,3.4,0.6c1.1,0.4,2,1,2.8,1.7c0.8,0.7,1.4,1.5,1.9,2.3c0.4,0.8,0.7,1.6,0.7,2.4
		l-0.5-1.5v-4.1c0-0.2,0.1-0.4,0.2-0.6c0.1-0.2,0.3-0.2,0.6-0.2c0.2,0,0.4,0.1,0.6,0.2c0.1,0.2,0.2,0.4,0.2,0.6v17.4
		c0,2.1-0.4,3.9-1.3,5.4c-0.9,1.5-2,2.7-3.5,3.5c-1.5,0.8-3.2,1.2-5.2,1.2c-1.1,0-2.2-0.1-3.3-0.4c-1.1-0.3-2-0.6-2.7-1.1
		c-0.7-0.4-1.1-0.9-1.1-1.4c0-0.2,0.1-0.4,0.2-0.5c0.1-0.1,0.3-0.2,0.5-0.2c0.3,0,0.5,0.1,0.8,0.4c0.2,0.3,0.6,0.6,1.2,0.8
		c0.2,0.1,0.6,0.2,1,0.3c0.4,0.1,0.9,0.3,1.5,0.3c0.6,0.1,1.3,0.1,2,0.1c2.6,0,4.6-0.8,6.1-2.4c1.5-1.6,2.2-3.6,2.2-6.2v-4l0.4,0
		c-0.3,1.2-0.8,2.1-1.4,3c-0.6,0.8-1.3,1.5-2.1,2c-0.8,0.5-1.6,0.9-2.5,1.1c-0.9,0.2-1.7,0.3-2.5,0.3c-1.9,0-3.5-0.5-5-1.4
		c-1.5-0.9-2.6-2.2-3.5-3.8c-0.9-1.6-1.3-3.4-1.3-5.5c0-2,0.4-3.8,1.3-5.5c0.9-1.6,2-2.9,3.5-3.8
		C297.8,129.6,299.4,129.2,301.3,129.2z M301.4,130.7c-1.6,0-3,0.4-4.2,1.2c-1.3,0.8-2.2,1.9-3,3.2c-0.7,1.4-1.1,2.9-1.1,4.7
		c0,1.7,0.4,3.3,1.1,4.7c0.7,1.4,1.7,2.5,3,3.3c1.3,0.8,2.7,1.2,4.2,1.2c1.6,0,3-0.4,4.2-1.2c1.2-0.8,2.2-1.8,3-3.2
		c0.7-1.4,1.1-3,1.1-4.8s-0.4-3.4-1.1-4.8c-0.7-1.4-1.7-2.4-3-3.2C304.3,131.1,302.9,130.7,301.4,130.7z"/>
	<path class="st0" d="M318.6,150.1c-0.2,0-0.4-0.1-0.6-0.2c-0.1-0.2-0.2-0.4-0.2-0.6v-18.6c0-0.2,0.1-0.4,0.2-0.6
		c0.2-0.2,0.4-0.2,0.6-0.2c0.2,0,0.4,0.1,0.6,0.2c0.1,0.2,0.2,0.4,0.2,0.6v6.9l-0.7,1.1c0-1.1,0.2-2.1,0.5-3.2
		c0.4-1.1,0.9-2.1,1.6-3c0.7-0.9,1.6-1.7,2.6-2.3c1-0.6,2.2-0.9,3.5-0.9c0.4,0,0.8,0.1,1.2,0.2c0.4,0.1,0.6,0.4,0.6,0.8
		c0,0.2-0.1,0.4-0.2,0.6c-0.1,0.2-0.3,0.2-0.5,0.2c-0.2,0-0.4-0.1-0.6-0.2c-0.2-0.1-0.6-0.2-1-0.2c-0.9,0-1.7,0.3-2.6,0.8
		c-0.8,0.5-1.6,1.2-2.3,2c-0.7,0.9-1.2,1.8-1.6,2.8s-0.6,2-0.6,2.9v10.1c0,0.2-0.1,0.4-0.2,0.6C319.1,150,318.9,150.1,318.6,150.1z"
		/>
	<path class="st0" d="M348.9,129.8c0.2,0,0.4,0.1,0.6,0.2c0.1,0.2,0.2,0.4,0.2,0.6v18.6c0,0.2-0.1,0.4-0.2,0.6
		c-0.2,0.2-0.4,0.2-0.6,0.2c-0.2,0-0.4-0.1-0.6-0.2c-0.1-0.2-0.2-0.4-0.2-0.6v-5.8l0.6-0.5c0,0.9-0.2,1.7-0.6,2.6
		c-0.4,0.9-1,1.7-1.8,2.4c-0.8,0.7-1.6,1.3-2.7,1.8s-2.1,0.7-3.3,0.7c-1.8,0-3.4-0.5-4.8-1.4c-1.4-0.9-2.5-2.2-3.3-3.9
		c-0.8-1.6-1.2-3.4-1.2-5.5c0-2.1,0.4-3.9,1.2-5.5c0.8-1.6,1.9-2.8,3.4-3.7c1.4-0.9,3-1.4,4.8-1.4c1.2,0,2.3,0.2,3.3,0.6
		c1,0.4,1.9,1,2.7,1.8c0.8,0.8,1.4,1.6,1.8,2.7c0.4,1,0.6,2.1,0.6,3.3l-0.6-1v-5.9c0-0.2,0.1-0.4,0.2-0.6
		C348.4,129.9,348.6,129.8,348.9,129.8z M340.3,148.9c1.5,0,2.9-0.4,4.1-1.2c1.2-0.8,2.1-1.9,2.8-3.3c0.7-1.4,1-3,1-4.7
		c0-1.7-0.3-3.2-1-4.6c-0.7-1.4-1.6-2.4-2.8-3.2c-1.2-0.8-2.5-1.2-4.1-1.2c-1.5,0-2.8,0.4-4,1.2c-1.2,0.8-2.1,1.8-2.8,3.2
		s-1,2.9-1,4.7c0,1.8,0.3,3.3,1,4.7s1.6,2.5,2.8,3.3C337.5,148.5,338.8,148.9,340.3,148.9z"/>
	<path class="st0" d="M365,129.6c1.5,0,2.9,0.4,4.2,1.2c1.3,0.8,2.1,2.1,2.6,3.9l-0.5,0.4l0.2-0.8c0.4-0.9,1-1.7,1.8-2.4
		c0.9-0.7,1.9-1.3,3-1.7c1.1-0.4,2.2-0.6,3.2-0.6c1.6,0,3,0.4,4,1.1c1.1,0.7,1.8,1.6,2.3,2.8c0.5,1.2,0.8,2.5,0.8,4v11.8
		c0,0.2-0.1,0.4-0.2,0.6c-0.1,0.2-0.3,0.2-0.6,0.2c-0.2,0-0.4-0.1-0.6-0.2c-0.1-0.2-0.2-0.4-0.2-0.6v-11.6c0-1.2-0.2-2.3-0.6-3.3
		c-0.4-1-1-1.8-1.8-2.4c-0.8-0.6-1.9-0.9-3.2-0.9c-1.2,0-2.3,0.3-3.4,0.9c-1.1,0.6-2,1.4-2.7,2.4c-0.7,1-1.1,2.1-1.1,3.3v11.6
		c0,0.2-0.1,0.4-0.2,0.6c-0.1,0.2-0.3,0.2-0.6,0.2c-0.2,0-0.4-0.1-0.6-0.2c-0.1-0.2-0.2-0.4-0.2-0.6v-11.8c0-1.2-0.2-2.2-0.5-3.2
		c-0.4-0.9-0.9-1.7-1.7-2.3c-0.8-0.6-1.8-0.9-3.1-0.9c-1.1,0-2.2,0.3-3.3,0.9c-1.1,0.6-2,1.3-2.7,2.3c-0.7,0.9-1.1,2-1.1,3.2v11.8
		c0,0.2-0.1,0.4-0.2,0.6c-0.2,0.2-0.4,0.2-0.6,0.2c-0.2,0-0.4-0.1-0.6-0.2c-0.1-0.2-0.2-0.4-0.2-0.6v-18.6c0-0.2,0.1-0.4,0.2-0.6
		c0.2-0.2,0.4-0.2,0.6-0.2c0.2,0,0.4,0.1,0.6,0.2c0.1,0.2,0.2,0.4,0.2,0.6v4.4l-1.2,2.1c0-0.9,0.2-1.9,0.7-2.8
		c0.5-0.9,1.1-1.7,1.8-2.4c0.8-0.7,1.6-1.3,2.6-1.7C363,129.8,364,129.6,365,129.6z"/>
	<path class="st0" d="M409.9,129.8c0.2,0,0.4,0.1,0.6,0.2c0.1,0.2,0.2,0.4,0.2,0.6v18.6c0,0.2-0.1,0.4-0.2,0.6
		c-0.2,0.2-0.4,0.2-0.6,0.2c-0.2,0-0.4-0.1-0.6-0.2c-0.1-0.2-0.2-0.4-0.2-0.6v-5.8l0.6-0.5c0,0.9-0.2,1.7-0.6,2.6
		c-0.4,0.9-1,1.7-1.8,2.4c-0.8,0.7-1.7,1.3-2.7,1.8c-1,0.4-2.1,0.7-3.3,0.7c-1.8,0-3.4-0.5-4.8-1.4c-1.4-0.9-2.5-2.2-3.3-3.9
		c-0.8-1.6-1.2-3.4-1.2-5.5c0-2.1,0.4-3.9,1.2-5.5c0.8-1.6,1.9-2.8,3.4-3.7c1.4-0.9,3-1.4,4.8-1.4c1.2,0,2.3,0.2,3.3,0.6
		c1,0.4,1.9,1,2.7,1.8c0.8,0.8,1.4,1.6,1.8,2.7c0.4,1,0.6,2.1,0.6,3.3l-0.6-1v-5.9c0-0.2,0.1-0.4,0.2-0.6
		C409.4,129.9,409.6,129.8,409.9,129.8z M401.3,148.9c1.5,0,2.9-0.4,4.1-1.2c1.2-0.8,2.1-1.9,2.8-3.3c0.7-1.4,1-3,1-4.7
		c0-1.7-0.3-3.2-1-4.6c-0.7-1.4-1.6-2.4-2.8-3.2c-1.2-0.8-2.5-1.2-4.1-1.2c-1.5,0-2.8,0.4-4,1.2c-1.2,0.8-2.1,1.8-2.8,3.2
		c-0.7,1.4-1,2.9-1,4.7c0,1.8,0.3,3.3,1,4.7c0.7,1.4,1.6,2.5,2.8,3.3C398.5,148.5,399.8,148.9,401.3,148.9z"/>
	<path class="st0" d="M434,120c0.2,0,0.4,0.1,0.6,0.2c0.1,0.2,0.2,0.4,0.2,0.6v28.4c0,0.2-0.1,0.4-0.2,0.6c-0.2,0.2-0.4,0.2-0.6,0.2
		c-0.2,0-0.4-0.1-0.6-0.2c-0.1-0.2-0.2-0.4-0.2-0.6v-5.8l0.6-0.9c0,0.9-0.2,1.8-0.6,2.8c-0.4,0.9-1,1.8-1.8,2.6
		c-0.8,0.8-1.7,1.4-2.7,1.8c-1,0.5-2.1,0.7-3.3,0.7c-1.8,0-3.4-0.5-4.8-1.4c-1.4-0.9-2.5-2.2-3.4-3.8c-0.8-1.6-1.2-3.4-1.2-5.5
		c0-2,0.4-3.8,1.2-5.5c0.8-1.6,1.9-2.9,3.4-3.8c1.4-0.9,3-1.4,4.8-1.4c1.1,0,2.2,0.2,3.2,0.6c1,0.4,1.9,1,2.7,1.8s1.4,1.6,1.9,2.7
		c0.5,1,0.7,2.1,0.7,3.3l-0.6-1v-15.7c0-0.2,0.1-0.4,0.2-0.6C433.6,120.1,433.8,120,434,120z M425.5,148.9c1.5,0,2.9-0.4,4.1-1.2
		c1.2-0.8,2.1-1.9,2.8-3.2c0.7-1.4,1-2.9,1-4.7s-0.3-3.3-1-4.7c-0.7-1.4-1.6-2.4-2.8-3.2c-1.2-0.8-2.5-1.2-4.1-1.2
		c-1.5,0-2.8,0.4-4,1.2c-1.2,0.8-2.1,1.9-2.8,3.2c-0.7,1.4-1,2.9-1,4.7c0,1.7,0.3,3.3,1,4.7c0.7,1.4,1.6,2.5,2.8,3.3
		C422.7,148.5,424,148.9,425.5,148.9z"/>
	<path class="st0" d="M460.1,139.8c0,2-0.4,3.8-1.3,5.4c-0.9,1.6-2,2.9-3.5,3.8c-1.5,0.9-3.2,1.4-5.1,1.4c-1.9,0-3.6-0.5-5.1-1.4
		c-1.5-0.9-2.7-2.2-3.6-3.8c-0.9-1.6-1.3-3.4-1.3-5.4c0-2,0.4-3.8,1.3-5.5c0.9-1.6,2.1-2.9,3.6-3.8c1.5-0.9,3.2-1.4,5.1-1.4
		c1.9,0,3.6,0.5,5.1,1.4c1.5,0.9,2.7,2.2,3.5,3.8C459.7,136,460.1,137.8,460.1,139.8z M458.5,139.8c0-1.8-0.4-3.3-1.1-4.7
		c-0.7-1.4-1.7-2.4-3-3.2c-1.3-0.8-2.7-1.2-4.3-1.2c-1.6,0-3,0.4-4.3,1.2c-1.3,0.8-2.3,1.9-3,3.2c-0.7,1.4-1.1,2.9-1.1,4.7
		c0,1.7,0.4,3.3,1.1,4.6c0.7,1.4,1.7,2.4,3,3.2c1.3,0.8,2.7,1.2,4.3,1.2c1.6,0,3.1-0.4,4.3-1.2c1.3-0.8,2.2-1.9,3-3.2
		C458.1,143.1,458.5,141.6,458.5,139.8z"/>
	<path class="st0" d="M466.2,150.1c-0.2,0-0.4-0.1-0.6-0.2c-0.1-0.2-0.2-0.4-0.2-0.6v-18.6c0-0.2,0.1-0.4,0.2-0.6
		c0.2-0.2,0.4-0.2,0.6-0.2c0.2,0,0.4,0.1,0.6,0.2c0.1,0.2,0.2,0.4,0.2,0.6v6.9l-0.7,1.1c0-1.1,0.2-2.1,0.5-3.2
		c0.4-1.1,0.9-2.1,1.6-3c0.7-0.9,1.6-1.7,2.6-2.3c1-0.6,2.2-0.9,3.5-0.9c0.4,0,0.8,0.1,1.2,0.2c0.4,0.1,0.6,0.4,0.6,0.8
		c0,0.2-0.1,0.4-0.2,0.6c-0.1,0.2-0.3,0.2-0.5,0.2c-0.2,0-0.4-0.1-0.6-0.2c-0.2-0.1-0.6-0.2-1-0.2c-0.9,0-1.7,0.3-2.6,0.8
		c-0.8,0.5-1.6,1.2-2.3,2c-0.7,0.9-1.2,1.8-1.6,2.8s-0.6,2-0.6,2.9v10.1c0,0.2-0.1,0.4-0.2,0.6C466.6,150,466.5,150.1,466.2,150.1z"
		/>
	<path class="st0" d="M525.2,121.6c0.2,0,0.4,0.1,0.6,0.2c0.2,0.1,0.2,0.3,0.2,0.6c0,0.1,0,0.2-0.1,0.4l-9.3,26.8
		c-0.1,0.2-0.2,0.3-0.3,0.4c-0.1,0.1-0.3,0.1-0.4,0.1c-0.2,0-0.4,0-0.5-0.1c-0.1-0.1-0.2-0.2-0.3-0.4l-7.6-19.1h0.3l-7.6,19.1
		c-0.1,0.2-0.2,0.3-0.3,0.4c-0.1,0.1-0.3,0.1-0.5,0.1c-0.1,0-0.3,0-0.4-0.1c-0.1-0.1-0.2-0.2-0.3-0.4l-9.3-26.8
		c-0.1-0.2-0.1-0.3-0.1-0.4c0-0.3,0.1-0.5,0.3-0.6c0.2-0.1,0.4-0.2,0.6-0.2c0.2,0,0.3,0,0.5,0.1c0.1,0.1,0.2,0.2,0.3,0.4l8.7,25.2
		l-0.3,0l7.5-18.9c0.1-0.2,0.1-0.3,0.3-0.4c0.1-0.1,0.3-0.1,0.5-0.1c0.2,0,0.3,0,0.5,0.1c0.1,0.1,0.2,0.2,0.3,0.4l7.5,19l-0.4,0
		l8.7-25.4c0.1-0.2,0.1-0.3,0.3-0.4S525,121.6,525.2,121.6z"/>
	<path class="st0" d="M539.2,150.5c-2,0-3.8-0.4-5.4-1.3c-1.6-0.9-2.8-2.1-3.7-3.7c-0.9-1.6-1.3-3.4-1.3-5.6c0-2.3,0.4-4.2,1.3-5.8
		c0.9-1.6,2-2.8,3.4-3.7c1.4-0.9,2.9-1.3,4.4-1.3c1.1,0,2.2,0.2,3.3,0.5c1.1,0.4,2,0.9,2.9,1.7c0.9,0.8,1.5,1.7,2.1,2.9
		c0.5,1.1,0.8,2.5,0.9,4.1c0,0.2-0.1,0.4-0.2,0.6c-0.2,0.2-0.4,0.3-0.6,0.3h-16.5l-0.2-1.5h16.3l-0.4,0.4v-0.7
		c-0.1-1.4-0.6-2.6-1.4-3.6c-0.8-1-1.7-1.7-2.8-2.2c-1.1-0.5-2.2-0.8-3.4-0.8c-0.8,0-1.7,0.2-2.6,0.5s-1.7,0.9-2.5,1.7
		c-0.8,0.7-1.4,1.7-1.8,2.8c-0.5,1.1-0.7,2.5-0.7,4c0,1.6,0.3,3.2,1,4.5c0.7,1.4,1.7,2.5,3,3.3c1.3,0.8,2.9,1.3,4.8,1.3
		c0.9,0,1.8-0.2,2.6-0.5c0.8-0.3,1.5-0.7,2.2-1.2c0.6-0.5,1.2-1.1,1.6-1.7c0.2-0.2,0.4-0.4,0.7-0.4c0.2,0,0.4,0.1,0.5,0.2
		c0.1,0.1,0.2,0.3,0.2,0.5c0,0.2-0.1,0.4-0.2,0.5c-0.8,1.1-1.9,2-3.2,2.8C542.2,150.1,540.8,150.5,539.2,150.5z"/>
	<path class="st0" d="M561.8,129.2c1.8,0,3.4,0.5,4.8,1.4c1.4,0.9,2.5,2.1,3.3,3.7c0.8,1.6,1.2,3.4,1.2,5.5c0,2-0.4,3.9-1.2,5.5
		c-0.8,1.6-1.9,2.9-3.4,3.9c-1.4,0.9-3,1.4-4.8,1.4c-0.9,0-1.8-0.1-2.6-0.4c-0.8-0.3-1.6-0.7-2.3-1.2c-0.7-0.5-1.3-1.1-1.9-1.8
		c-0.6-0.7-1.1-1.5-1.5-2.4l0.5-0.6v5.2c0,0.2-0.1,0.4-0.2,0.6c-0.1,0.2-0.3,0.2-0.6,0.2c-0.2,0-0.4-0.1-0.6-0.2
		c-0.2-0.2-0.2-0.4-0.2-0.6v-28.4c0-0.2,0.1-0.4,0.2-0.6c0.1-0.2,0.3-0.2,0.6-0.2c0.2,0,0.4,0.1,0.6,0.2c0.1,0.2,0.2,0.4,0.2,0.6
		v14.7l-0.5-0.3c0.4-1,0.9-1.9,1.4-2.6s1.2-1.4,1.9-1.9c0.7-0.5,1.5-0.9,2.4-1.2C560.1,129.3,561,129.2,561.8,129.2z M561.8,130.7
		c-1.5,0-2.9,0.4-4.1,1.2c-1.2,0.8-2.1,1.8-2.8,3.2s-1,2.9-1,4.7c0,1.8,0.3,3.3,1,4.7s1.6,2.5,2.8,3.3c1.2,0.8,2.5,1.2,4.1,1.2
		c1.5,0,2.9-0.4,4-1.2c1.2-0.8,2.1-1.9,2.8-3.3c0.7-1.4,1-3,1-4.7c0-1.8-0.3-3.3-1-4.7c-0.7-1.4-1.6-2.4-2.8-3.2
		C564.6,131.1,563.3,130.7,561.8,130.7z"/>
</g>
<path class="st1" d="M296.5,17.6v8.9c0,2.4-1.9,4.4-4.4,4.4h-30.9v17.7h22.1c2.4,0,4.4,1.9,4.4,4.4v8.9c0,2.4-1.9,4.4-4.4,4.4h-22.1
	v17.6h30.9c2.4,0,4.4,1.9,4.4,4.4v9c0,2.4-1.9,4.4-4.4,4.4h-30.9H248c-2.4,0-4.4-1.9-4.4-4.4V17.6c0-2.4,1.9-4.4,4.4-4.4h44.2
	C294.6,13.2,296.5,15.2,296.5,17.6z"/>
<path class="st1" d="M322.4,17.6v66.2h30.9c2.4,0,4.4,1.9,4.4,4.4v9c0,2.4-1.9,4.4-4.4,4.4h-44.2c-2.4,0-4.4-1.9-4.4-4.4V17.6
	c0-2.4,1.9-4.4,4.4-4.4h9C320.5,13.2,322.4,15.2,322.4,17.6z"/>
<path class="st1" d="M381.9,17.6v66.2h30.9c2.4,0,4.4,1.9,4.4,4.4v9c0,2.4-1.9,4.4-4.4,4.4h-44.2c-2.4,0-4.4-1.9-4.4-4.4V17.6
	c0-2.4,1.9-4.4,4.4-4.4h9C379.9,13.2,381.9,15.2,381.9,17.6z"/>
<path class="st1" d="M561.1,62V17.6c0-2.4,1.9-4.4,4.4-4.4h9c2.4,0,4.4,1.9,4.4,4.4v75.3c0,3.8-4.6,5.8-7.4,3.2l-45.6-43.4v44.5
	c0,2.4-1.9,4.4-4.4,4.4h-9c-2.4,0-4.4-1.9-4.4-4.4V21.8c0-3.8,4.6-5.8,7.4-3.2L561.1,62z"/>
<path class="st1" d="M640.5,17.6v8.9c0,2.4-1.9,4.4-4.4,4.4h-30.9v17.7h22.1c2.4,0,4.4,1.9,4.4,4.4v8.9c0,2.4-1.9,4.4-4.4,4.4h-22.1
	v17.6h30.9c2.4,0,4.4,1.9,4.4,4.4v9c0,2.4-1.9,4.4-4.4,4.4h-30.9h-13.3c-2.4,0-4.4-1.9-4.4-4.4V17.6c0-2.4,1.9-4.4,4.4-4.4h44.2
	C638.5,13.2,640.5,15.2,640.5,17.6z"/>
<path class="st1" d="M702.6,26.4c-8.6-8.6-20.1-13-32.2-13v0.1H653c-2.4,0-4.4,1.9-4.4,4.4v79.3c0,2.4,1.9,4.4,4.4,4.4h17.4
	c12.1,0,23.5-4.3,32.2-12.9C718.3,72.8,718.3,42.1,702.6,26.4z M690.2,76c-5.2,5.6-12.2,7.8-19.7,7.8h-0.1h-4.2V31h4.1
	c7.2,0,14,2,19.2,7.2c6,6,7.8,14.1,7.1,22.5C696.1,66.3,694,71.8,690.2,76z"/>
<path class="st2" d="M0.9,58.2l72.4,46.1c1.3,0.9,2.8-0.5,2.8-2.6v-0.3V86.8v-0.9v0c0-2.4-1-4.5-2.5-5.5l-8.8-5.7l-0.6-0.3v-38
	l0.5-0.3l8.8-5.6c1.5-1,2.5-3.1,2.5-5.4v0v-1V9.7V9.4c0-2.1-1.5-3.5-2.8-2.6L0.9,52.9C-0.7,54-0.7,57.2,0.9,58.2z M50.5,65.4
	l-16.2-9.9l16.2-9.8V65.4z"/>
<g>
	<path class="st2" d="M798.5,59.6l-72,45.6c-1.3,0.8-2.8-0.6-2.8-2.6l0,0V87.9V87v0c0-2.2,0.9-4.2,2.3-5l40-25l-39.3-24.5
		c-1.8-1.1-3-3.7-3-6.6v0V11.3c0-2.1,1.5-3.5,2.8-2.6l72,45.7C800.1,55.4,800.1,58.6,798.5,59.6z"/>
</g>
<g>
	<g>
		<path class="st1" d="M464.5,17.3l36.5,80.8c0.7,1.5-0.4,3.2-2.1,3.2l0,0h-11.7h-0.7l0,0c-1.7,0-3.3-1-4-2.6l-20-44.9l-19.6,44.1
			c-0.9,2-3,3.4-5.3,3.4l0,0h-11.8c-1.7,0-2.8-1.7-2.1-3.2l36.6-80.8C461.1,15.5,463.7,15.5,464.5,17.3z"/>
	</g>
</g>
<g>
	<path class="st2" d="M132.6,3.8h8.8c2.1,0,3.5,2.1,2.7,4l-42.6,101.3c-0.5,1.1-1.5,1.8-2.7,1.8h-11c-2.1,0-3.5-2.2-2.7-4.1
		L129.9,5.6C130.4,4.5,131.5,3.8,132.6,3.8z"/>
</g>
<path class="st1" d="M195.4,97l-35.5-80.6c-0.7-1.5,0.4-3.2,2.1-3.2l0,0h11.4h0.7l0,0c1.7,0,3.2,1,3.9,2.6l19.5,44.8l19.1-44
	c0.9-2,2.9-3.4,5.1-3.4h0h11.5c1.6,0,2.7,1.7,2.1,3.2L199.5,97C198.7,98.8,196.2,98.8,195.4,97z"/>
</svg>
